# xmcd CD database file
#
# Track frame offsets:
#	150
#	22563
#	43917
#	63297
#	77691
#	90620
#	111747
#	128053
#	144745
#	160720
#
# Disc length: 2382 seconds
#
# Revision: 0
# Processed by: cddbd v1.5.2PL0 Copyright (c) Steve Scherf et al.
# Submitted via: CDex 1.70beta2
#
DISCID=7d094c0a
DTITLE=Saint Germain Des Pres Cafe - Saint Germain Des Pres Cafe Vol. 9 [CD2]
DYEAR=1900
DGENRE=Jazz
TTITLE0=Rebirth Of Cool - Dj Cam Quartet
TTITLE1=So Sweet - Dj Cam Quartet
TTITLE2=New York New York - Dj Cam Quartet
TTITLE3=It's Yours - Dj Cam Quartet Feat. Inlove
TTITLE4=Tribute To J Dilla - Dj Cam Quartet
TTITLE5=Raise Up - Dj Cam Quartet
TTITLE6=Saint-Germain - Dj Cam Quartet
TTITLE7=Hold Tight - Dj Cam Quartet
TTITLE8=Visions - Dj Cam Quartet
TTITLE9=Back In The Days - Dj Cam Quartet
EXTD=
EXTT0=
EXTT1=
EXTT2=
EXTT3=
EXTT4=
EXTT5=
EXTT6=
EXTT7=
EXTT8=
EXTT9=
PLAYORDER=
